<svg class="icon" viewBox="0 0 1024 1024" version="1.1" xmlns="http://www.w3.org/2000/svg" width="200" height="200">
  <defs>
    <clipPath id="ukCircleClip">
      <circle cx="512" cy="512" r="512" />
    </clipPath>
  </defs>

  <g clip-path="url(#ukCircleClip)">
    <g transform="translate(76, 76) scale(0.85)">
      
      <path d="M15.2448 610.5344c4.864 24.6272 11.5456 48.8448 20.032 72.4736h41.7536l-33.4592 21.7344a511.9488 511.9488 0 0 0 44.608 84.5312l163.2768-106.368h117.76L126.976 840.8064c7.04 8.1792 14.336 16.1408 21.8496 23.8976l224.128-146.0992v280.3456c19.8656 5.632 40.0384 10.048 60.416 13.2096V610.5344H15.2576z m575.3728 401.7408a504.384 504.384 0 0 0 60.416-13.184V721.792l222.336 144.8448a513.536 513.536 0 0 0 61.44-75.904l-165.6704-107.8528h117.76l79.7568 51.9936c4.4416-9.088 8.6528-18.304 12.5184-27.648l-37.3248-24.3456h46.7712A497.5104 497.5104 0 0 0 1008.64 610.432H590.6176v401.856zM433.3824 11.7248c-20.3904 3.1488-40.576 7.552-60.416 13.184v286.272L145.28 162.816a519.4112 519.4112 0 0 0-57.792 73.0496L248.832 340.992h-117.76l-75.2128-49.0368a529.3824 529.3824 0 0 0-13.9904 31.8592l26.3936 17.1776H35.264a496 496 0 0 0-20.0192 72.3584h418.1376V11.7248z m575.36 401.7408a496.0256 496.0256 0 0 0-20.0192-72.3584h-37.76l30.2592-19.6864a510.848 510.848 0 0 0-44.16-84.6464l-160.0768 104.32h-117.8752l239.5008-156.096a484.3264 484.3264 0 0 0-21.8368-24.1152L651.0336 307.9936V25.0368a504.6528 504.6528 0 0 0-60.416-13.2096v401.6384H1008.768z" fill="#FFFFFF"></path>
      
      <path d="M35.2768 683.008c2.6112 7.3984 5.4528 14.5664 8.4096 21.7344l33.4592-21.7344H35.2768z m6.4768-359.1936c-2.2784 5.6832-4.4416 11.4048-6.4768 17.1776h32.8704l-26.3936-17.1776z m835.0208-162.944A506.0608 506.0608 0 0 0 651.0336 25.0496v282.9568L876.7744 160.896zM372.9664 25.0496C284.9024 50.048 206.72 98.4192 145.28 162.816l227.6736 148.3648V25.0368z m-224.1408 839.68a505.472 505.472 0 0 0 224.128 134.2464V718.6176l-224.128 146.0864z m839.9104-523.6096a583.36 583.36 0 0 0-7.5136-19.6864l-30.272 19.6864h37.7856zM651.0336 998.9632a505.8304 505.8304 0 0 0 222.336-132.3136L651.0208 721.792v277.1584z m328.256-291.712c3.328-8.0512 6.4768-16.1664 9.4336-24.3584h-46.7584l37.3248 24.3456z" fill="#002377"></path>
      
      <path d="M590.6176 1012.2752V610.6496H1008.768c6.2592-31.872 9.5616-64.8576 9.5616-98.5344 0-33.6768-3.3024-66.6752-9.5616-98.5344H590.6176V11.9424a498.0352 498.0352 0 0 0-75.2-6.016h-6.8352c-25.6 0.1024-50.7392 2.2656-75.2 6.016v401.6384H15.232a511.2064 511.2064 0 0 0-9.5488 98.5344c0 33.6768 3.2896 66.6752 9.5488 98.5344h418.1376v401.6256c24.576 3.8784 49.6 5.9264 75.2 6.0416h6.72c25.6-0.2304 50.7392-2.2784 75.3152-6.0416z" fill="#C2121F"></path>
      
      <path d="M769.1392 682.8928l165.5424 107.8656a511.2576 511.2576 0 0 0 32.0896-55.872l-79.7568-51.9936h-117.888z m7.7312-341.7856L936.96 236.7744a504.192 504.192 0 0 0-38.4512-51.776L659.1104 341.12h117.76z m-528.0384 0L87.5008 235.9808a522.4832 522.4832 0 0 0-31.744 56.0896l75.2 49.024h117.8752z m2.6112 341.7856L88.2944 789.1584A520.4736 520.4736 0 0 0 126.976 840.704l242.2272-157.9264h-117.76v0.1152z" fill="#C2121F"></path>
    
    </g>
  </g>
</svg>
