<svg class="icon" viewBox="0 0 1024 1024" version="1.1" xmlns="http://www.w3.org/2000/svg" width="200" height="200">
  <defs>
    <clipPath id="circleClip">
      <circle cx="512" cy="512" r="512" />
    </clipPath>
  </defs>
  <g clip-path="url(#circleClip)">
    <path d="M0 0h1024v1024H0z" fill="#DD4631"></path>
    <g transform="translate(120, 100) scale(1.1)">
      <path d="M204.327385 113.664l29.302153 97.910154 96.256-0.393846-77.666461 58.919384 28.750769 91.057231-76.642461-56.713846-76.563693 56.713846 28.672-91.057231L78.769231 211.180308l96.256 0.393846 29.302154-97.910154z m306.176 184.398769l10.24 30.798769L551.384615 327.758769l-24.103384 19.534769 10.082461 28.593231-24.891077-17.171692-23.788307 18.747077 8.192-29.144616-25.206154-17.959384 30.562461-0.866462 8.27077-31.428923zM493.095385 169.117538l21.976615 23.709539 27.332923-13.863385-13.942154 27.884308 20.873846 21.819077-29.696-5.198769-13.942153 27.096615-4.489847-30.011077-30.326153-5.671384 27.490461-13.705847-5.277538-32.059077zM441.501538 78.769231l-3.387076 32.295384 28.278153 12.051693-29.932307 7.483077-2.756923 30.247384-15.43877-26.230154-29.380923 6.931693 19.53477-23.000616-15.517539-27.017846 28.120615 12.209231 20.48-24.969846z m-0.157538 311.689846l-2.756923 32.295385 28.356923 11.500307-29.696 8.034462L435.042462 472.615385l-15.911385-25.915077-29.223385 7.561846 19.062154-23.473231-15.990154-26.702769 28.356923 11.657846 20.007385-25.284923z" fill="#FFDE00"></path>
    </g>
  </g>
</svg>
