<?xml version="1.0" encoding="UTF-8"?>
<!DOCTYPE svg PUBLIC "-//W3C//DTD SVG 1.1//EN" "http://www.w3.org/Graphics/SVG/1.1/DTD/svg11.dtd">
<svg xmlns="http://www.w3.org/2000/svg" xml:space="preserve" width="47.7457mm" height="8.2693mm" style="shape-rendering:geometricPrecision; text-rendering:geometricPrecision; image-rendering:optimizeQuality; fill-rule:evenodd; clip-rule:evenodd"
viewBox="0 0 47.7456 8.26928"
 xmlns:xlink="http://www.w3.org/1999/xlink">
 <defs>
  <style type="text/css">
   <![CDATA[
    .str0 {stroke:#FF3531;stroke-width:0.0846998}
    .fil5 {fill:none;fill-rule:nonzero}
    .fil0 {fill:#FF1A12}
    .fil1 {fill:yellow}
    .fil3 {fill:#0E2E79;fill-rule:nonzero}
    .fil2 {fill:#4570C7;fill-rule:nonzero}
    .fil4 {fill:#FF3531;fill-rule:nonzero}
   ]]>
  </style>
 </defs>
 <g id="ColegioDelibesLogo">
  <metadata id="ColegioDelibesLogoMetaData"/>
  <g id="LogoDelibes">
   <g>
    <path id="_92304720" class="fil0" d="M33.5264 8.26938c6.69289,-0.0495999 14.4782,-3.73769 14.2181,-6.27629 -0.328199,-1.1653 -3.88869,-1.829 -10.2269,0.345799 3.78669,-1.0109 8.07958,-1.3899 8.46138,0.0502999 0.490599,0.880298 -2.47889,4.07079 -12.4526,5.88019z"/>
    <path id="_92304648" class="fil1" d="M33.137 7.93078c5.76469,-0.0426999 12.4704,-3.21929 12.2463,-5.40589 -0.282699,-1.0036 -3.34939,-1.5753 -8.80868,0.297899 3.26169,-0.870698 6.95919,-1.1972 7.28808,0.0432999 0.422499,0.758198 -2.1351,3.50629 -10.7257,5.06469z"/>
    <path id="_92304576" class="fil0" d="M33.9244 7.27228c4.53959,-0.0342999 9.82008,-2.58369 9.64358,-4.33849 -0.2226,-0.805498 -2.63749,-1.2643 -6.93649,0.238999 2.56839,-0.698799 5.48009,-0.960798 5.73909,0.0347999 0.332699,0.608499 -1.6814,2.81399 -8.44618,4.06469z"/>
   </g>
   <path id="_92304432" class="fil2" d="M2.76799 4.10469l0.590999 0.0871998c-0.0637999,0.457399 -0.2293,0.816198 -0.496299,1.075 -0.265799,0.258899 -0.593299,0.388299 -0.981198,0.388299 -0.484899,0 -0.876298,-0.1781 -1.1707,-0.534299 -0.295499,-0.356299 -0.443799,-0.867498 -0.443799,-1.5338 0,-0.430599 0.0638999,-0.807298 0.1905,-1.1302 0.1278,-0.322899 0.320699,-0.565099 0.580799,-0.726498 0.258999,-0.1615 0.541999,-0.242199 0.846598,-0.242199 0.385599,0 0.701699,0.1102 0.945898,0.329299 0.245299,0.2191 0.402699,0.529199 0.472399,0.932798l-0.585399 0.1013c-0.0558999,-0.267799 -0.154,-0.468999 -0.295499,-0.604799 -0.1414,-0.1346 -0.312699,-0.2025 -0.513499,-0.2025 -0.303399,0 -0.549899,0.1217 -0.739298,0.366499 -0.1894,0.243399 -0.284099,0.629099 -0.284099,1.157 0,0.535699 0.0911998,0.925198 0.274899,1.1687 0.1827,0.242099 0.421099,0.363899 0.715499,0.363899 0.2361,0 0.432399,-0.0819998 0.590999,-0.244799 0.1586,-0.1627 0.258999,-0.412599 0.301199,-0.750898z"/>
   <path id="_923044321" class="fil2" d="M3.30769 3.57169c0,-0.738098 0.1825,-1.2852 0.548699,-1.6402 0.304699,-0.294699 0.676699,-0.443299 1.1159,-0.443299 0.488399,0 0.887698,0.1794 1.197,0.539399 0.310299,0.358799 0.464299,0.854698 0.464299,1.4877 0,0.513799 -0.0683999,0.917498 -0.2054,1.2109 -0.1369,0.294699 -0.336599,0.522799 -0.597799,0.685499 -0.262399,0.1628 -0.547699,0.243499 -0.858098,0.243499 -0.496299,0 -0.897898,-0.1781 -1.2048,-0.536899 -0.306899,-0.357499 -0.459799,-0.872598 -0.459799,-1.5466zm0.618399 0c0,0.511299 0.0992998,0.893098 0.297699,1.1468 0.1986,0.254999 0.448499,0.381899 0.748498,0.381899 0.298999,0 0.547699,-0.1282 0.746198,-0.383199 0.1974,-0.254999 0.296699,-0.644499 0.296699,-1.1673 0,-0.493299 -0.0992998,-0.867498 -0.298899,-1.1212 -0.1997,-0.253699 -0.447299,-0.380599 -0.743998,-0.380599 -0.299999,0 -0.549899,0.1269 -0.748498,0.379299 -0.1984,0.252499 -0.297699,0.634299 -0.297699,1.1443z"/>
   <polygon id="_9230443212" class="fil2" points="6.98369,5.56549 6.98369,0.0619999 7.58498,0.0619999 7.58498,5.56549 "/>
   <path id="_92304432123" class="fil2" d="M10.6052 4.28159l0.621799 0.0857998c-0.0980998,0.408799 -0.279499,0.725298 -0.544199,0.950798 -0.265899,0.2242 -0.604699,0.336999 -1.0166,0.336999 -0.519199,0 -0.931098,-0.1794 -1.2346,-0.538199 -0.304699,-0.358799 -0.456399,-0.862298 -0.456399,-1.5107 0,-0.671399 0.1541,-1.1917 0.460999,-1.562 0.307999,-0.370299 0.706199,-0.556099 1.1968,-0.556099 0.474699,0 0.862598,0.1819 1.1627,0.544599 0.301199,0.362599 0.451899,0.873898 0.451899,1.5312 0,0.0409999 -0.0012,0.1012 -0.00349999,0.1807l-2.64709 0c0.0217,0.438199 0.1324,0.773898 0.330899,1.0059 0.1986,0.2332 0.444999,0.349799 0.741598,0.349799 0.2202,0 0.408599,-0.0653999 0.564799,-0.1961 0.1564,-0.1294 0.279599,-0.336999 0.370899,-0.622699zm-1.9751 -1.093l1.9819 0c-0.0261999,-0.334499 -0.1027,-0.586899 -0.2271,-0.753498 -0.1916,-0.260099 -0.440399,-0.390799 -0.744998,-0.390799 -0.276099,0 -0.508899,0.1038 -0.697099,0.311399 -0.1883,0.2076 -0.292099,0.485599 -0.312699,0.832898z"/>
   <path id="_923044321234" class="fil2" d="M11.5304 5.89609l0.585399 0.0973998c0.0239999,0.2024 0.0923998,0.349799 0.2031,0.443299 0.1494,0.1243 0.353699,0.1871 0.611599,0.1871 0.279499,0 0.493999,-0.0627999 0.645699,-0.1871 0.1517,-0.1255 0.253299,-0.301099 0.306899,-0.525299 0.0319999,-0.1384 0.0456999,-0.426699 0.0433999,-0.867498 -0.262399,0.347199 -0.589899,0.521499 -0.982398,0.521499 -0.488299,0 -0.865998,-0.1973 -1.133,-0.593299 -0.266999,-0.394599 -0.401599,-0.869998 -0.401599,-1.4223 0,-0.380599 0.0615999,-0.731698 0.1837,-1.0533 0.1232,-0.321599 0.301199,-0.570199 0.533999,-0.745698 0.2328,-0.1743 0.506599,-0.262699 0.820398,-0.262699 0.418599,0 0.764398,0.1909 1.036,0.571499l0 -0.480499 0.555599 0 0 3.44559c0,0.620099 -0.0570999,1.0609 -0.1688,1.3198 -0.113,0.258799 -0.290999,0.463799 -0.535199,0.613699 -0.244099,0.15 -0.544199,0.2256 -0.901398,0.2256 -0.423299,0 -0.765598,-0.1077 -1.0256,-0.321699 -0.261399,-0.2139 -0.386899,-0.535599 -0.377799,-0.966098zm0.497499 -2.39489c0,0.522799 0.0923998,0.904698 0.278499,1.1443 0.1847,0.240899 0.416399,0.359999 0.694799,0.359999 0.276099,0 0.507699,-0.1191 0.694899,-0.357499 0.187,-0.239599 0.280599,-0.613699 0.280599,-1.125 0,-0.488199 -0.0958998,-0.855998 -0.288699,-1.1033 -0.1928,-0.247299 -0.425599,-0.371599 -0.697099,-0.371599 -0.266999,0 -0.494099,0.1218 -0.682299,0.366499 -0.1871,0.243499 -0.280699,0.606099 -0.280699,1.0866z"/>
   <path id="_9230443212345" class="fil2" d="M15.1084 0.839798l0 -0.777798 0.602399 0 0 0.777798 -0.602399 0zm0 4.72569l0 -3.98629 0.602399 0 0 3.98629 -0.602399 0z"/>
   <path id="_92304432123456" class="fil2" d="M16.06 3.57169c0,-0.738098 0.1825,-1.2852 0.548699,-1.6402 0.304699,-0.294699 0.676699,-0.443299 1.1159,-0.443299 0.488399,0 0.887698,0.1794 1.197,0.539399 0.310299,0.358799 0.464299,0.854698 0.464299,1.4877 0,0.513799 -0.0683999,0.917498 -0.2054,1.2109 -0.1369,0.294699 -0.336599,0.522799 -0.597799,0.685499 -0.262399,0.1628 -0.547699,0.243499 -0.858098,0.243499 -0.496299,0 -0.897898,-0.1781 -1.2048,-0.536899 -0.306899,-0.357499 -0.459799,-0.872598 -0.459799,-1.5466zm0.618399 0c0,0.511299 0.0992998,0.893098 0.297699,1.1468 0.1986,0.254999 0.448499,0.381899 0.748498,0.381899 0.298999,0 0.547699,-0.1282 0.746198,-0.383199 0.1974,-0.254999 0.296699,-0.644499 0.296699,-1.1673 0,-0.493299 -0.0992998,-0.867498 -0.298899,-1.1212 -0.1997,-0.253699 -0.447299,-0.380599 -0.743998,-0.380599 -0.299999,0 -0.549899,0.1269 -0.748498,0.379299 -0.1984,0.252499 -0.297699,0.634299 -0.297699,1.1443z"/>
   <path id="_92304312" class="fil3" d="M22.9566 5.50349l-0.856898 0 0 -0.585599c-0.1424,0.2281 -0.310599,0.397199 -0.504699,0.508699 -0.194,0.1115 -0.389099,0.1666 -0.586499,0.1666 -0.401599,0 -0.744798,-0.1845 -1.0308,-0.553599 -0.284899,-0.368999 -0.428399,-0.884098 -0.428399,-1.544 0,-0.676599 0.1391,-1.1904 0.417199,-1.5415 0.278199,-0.351099 0.630299,-0.527899 1.0555,-0.527899 0.389099,0 0.726698,0.1858 1.0115,0.556099l0 -1.9823 0.923098 0 0 5.50349zm-2.46409 -2.0797c0,0.425499 0.0515999,0.732998 0.1548,0.923898 0.148,0.274199 0.356599,0.412599 0.623599,0.412599 0.2131,0 0.393699,-0.1038 0.542799,-0.310099 0.148,-0.2063 0.2232,-0.515099 0.2232,-0.925098 0,-0.457499 -0.0728998,-0.788098 -0.2164,-0.989198 -0.1447,-0.2012 -0.329699,-0.302399 -0.556399,-0.302399 -0.2186,0 -0.401399,0.0998998 -0.549499,0.298499 -0.1481,0.1986 -0.2221,0.495899 -0.2221,0.891798z"/>
   <path id="_923043121" class="fil3" d="M25.4571 4.23489l0.920798 0.1756c-0.1189,0.385699 -0.304999,0.679099 -0.560799,0.880298 -0.254499,0.2024 -0.574199,0.302399 -0.957798,0.302399 -0.606799,0 -1.0553,-0.2255 -1.347,-0.679099 -0.2299,-0.362699 -0.345399,-0.821398 -0.345399,-1.3737 0,-0.661099 0.1514,-1.1788 0.454199,-1.553 0.301699,-0.374099 0.684099,-0.561199 1.1463,-0.561199 0.519199,0 0.928598,0.196 1.2291,0.588099 0.299599,0.392099 0.443099,0.991798 0.430799,1.8004l-2.3138 0c0.00669999,0.312599 0.0807998,0.556099 0.2232,0.729098 0.1425,0.1742 0.320799,0.261399 0.532699,0.261399 0.1447,0 0.265899,-0.0448999 0.364499,-0.1346 0.0986998,-0.0909998 0.1738,-0.2358 0.2232,-0.435699zm0.0526999 -1.0661c-0.00669999,-0.306199 -0.0750998,-0.538099 -0.2063,-0.696999 -0.1313,-0.1589 -0.291599,-0.2383 -0.480099,-0.2383 -0.2018,0 -0.367799,0.0844998 -0.499099,0.252399 -0.1312,0.1666 -0.1962,0.394599 -0.1939,0.682899l1.3794 0z"/>
   <polygon id="_9230431212" class="fil3" points="26.7498,5.50349 26.7498,0 27.6728,0 27.6728,5.50349 "/>
   <path id="_92304312123" class="fil3" d="M28.1894 0.976398l0 -0.976398 0.922998 0 0 0.976398 -0.922998 0zm0 4.52709l0 -3.98629 0.922998 0 0 3.98629 -0.922998 0z"/>
   <path id="_923043121234" class="fil3" d="M29.5896 5.50349l0 -5.50349 0.923098 0 0 1.9823c0.284899,-0.370299 0.621399,-0.556099 1.0116,-0.556099 0.425099,0 0.776198,0.1768 1.0554,0.527899 0.278099,0.351099 0.417199,0.855998 0.417199,1.5146 0,0.680399 -0.1424,1.2058 -0.426199,1.5735 -0.283699,0.367799 -0.628099,0.550999 -1.0329,0.550999 -0.1996,0 -0.395999,-0.0563999 -0.589899,-0.1704 -0.1941,-0.1141 -0.361199,-0.281899 -0.501399,-0.504899l0 0.585599 -0.856898 0zm0.916398 -2.0797c0,0.412599 0.0570999,0.717598 0.1705,0.916198 0.1603,0.280599 0.372299,0.420299 0.638099,0.420299 0.203,0 0.376799,-0.0998998 0.520399,-0.298599 0.1435,-0.1986 0.2153,-0.512499 0.2153,-0.940498 0,-0.454899 -0.0727998,-0.784198 -0.2175,-0.985298 -0.1436,-0.2012 -0.328699,-0.302399 -0.555199,-0.302399 -0.221,0 -0.404899,0.0985998 -0.551899,0.294699 -0.1468,0.1973 -0.2197,0.494599 -0.2197,0.895598z"/>
   <path id="_9230431212345" class="fil3" d="M35.3293 4.23489l0.920798 0.1756c-0.1189,0.385699 -0.304999,0.679099 -0.560799,0.880298 -0.254499,0.2024 -0.574199,0.302399 -0.957798,0.302399 -0.606799,0 -1.0553,-0.2255 -1.347,-0.679099 -0.2299,-0.362699 -0.345399,-0.821398 -0.345399,-1.3737 0,-0.661099 0.1514,-1.1788 0.454199,-1.553 0.301699,-0.374099 0.684099,-0.561199 1.1463,-0.561199 0.519199,0 0.928598,0.196 1.2291,0.588099 0.299599,0.392099 0.443099,0.991798 0.430799,1.8004l-2.3138 0c0.00669999,0.312599 0.0807998,0.556099 0.2232,0.729098 0.1425,0.1742 0.320799,0.261399 0.532699,0.261399 0.1447,0 0.265899,-0.0448999 0.364499,-0.1346 0.0986998,-0.0909998 0.1738,-0.2358 0.2232,-0.435699zm0.0526999 -1.0661c-0.00669999,-0.306199 -0.0750998,-0.538099 -0.2063,-0.696999 -0.1313,-0.1589 -0.291599,-0.2383 -0.480099,-0.2383 -0.2018,0 -0.367799,0.0844998 -0.499099,0.252399 -0.1312,0.1666 -0.1962,0.394599 -0.1939,0.682899l1.3794 0z"/>
   <path id="_92304312123456" class="fil3" d="M36.2968 4.36559l0.926398 -0.1614c0.0391999,0.205 0.1188,0.361299 0.239999,0.467699 0.12,0.1063 0.288199,0.1602 0.505799,0.1602 0.238899,0 0.418299,-0.0499999 0.538299,-0.1512 0.0818998,-0.0691999 0.1223,-0.1641 0.1223,-0.280699 0,-0.0806998 -0.0224,-0.1473 -0.0661999,-0.1998 -0.0459999,-0.0499999 -0.1491,-0.0961998 -0.308499,-0.1384 -0.744598,-0.1871 -1.2168,-0.358799 -1.4164,-0.513899 -0.275899,-0.2152 -0.413899,-0.515099 -0.413899,-0.898198 0,-0.344699 0.1189,-0.635599 0.357799,-0.870098 0.238799,-0.2357 0.608999,-0.353599 1.1104,-0.353599 0.477699,0 0.833198,0.0896998 1.0654,0.266499 0.2322,0.1781 0.391499,0.440799 0.478899,0.789298l-0.870298 0.1833c-0.0369999,-0.1551 -0.1077,-0.274199 -0.212,-0.356199 -0.1043,-0.0832998 -0.252299,-0.1243 -0.445199,-0.1243 -0.243499,0 -0.417299,0.0383999 -0.522699,0.1166 -0.0695999,0.0550999 -0.1043,0.1268 -0.1043,0.214 0,0.0755998 0.0302999,0.1383 0.0919998,0.1909 0.0829998,0.0704999 0.370099,0.1691 0.862398,0.297299 0.491299,0.1268 0.834498,0.283099 1.0296,0.468899 0.1929,0.1884 0.289399,0.449799 0.289399,0.784198 0,0.365199 -0.1335,0.680399 -0.401499,0.943098 -0.266999,0.262699 -0.661699,0.393399 -1.1855,0.393399 -0.475499,0 -0.851298,-0.1102 -1.1294,-0.330599 -0.276999,-0.2191 -0.457599,-0.518999 -0.542799,-0.896998z"/>
   <polygon id="_92304192" class="fil4" points="15.617,7.26368 15.617,6.96069 15.3829,6.42059 15.5564,6.42059 15.7008,6.76989 15.8385,6.42059 15.9987,6.42059 15.7642,6.96419 15.7642,7.26368 "/>
   <polygon id="_923041921" class="fil4" points="17.2665,7.26368 17.2665,6.59779 17.0696,6.59779 17.0696,6.42059 17.6106,6.42059 17.6106,6.59779 17.4137,6.59779 17.4137,7.26368 "/>
   <path id="_9230419212" class="fil4" d="M17.871 6.42059l0.1507 0 0 0.475499c0,0.0686999 0.0103,0.1196 0.0309999,0.1532 0.0207,0.0334999 0.0519999,0.0502999 0.0943998,0.0502999 0.0442999,0 0.0771998,-0.0166 0.0984998,-0.0498999 0.0214,-0.0333999 0.0320999,-0.0844998 0.0320999,-0.1536l0 -0.475499 0.1507 0 0 0.476699c0,0.1319 -0.0226,0.2283 -0.0677999,0.289099 -0.0451999,0.0610999 -0.1166,0.0914998 -0.2143,0.0914998 -0.0464999,0 -0.0874998,-0.00759998 -0.1232,-0.0228 -0.0356999,-0.0152 -0.0644999,-0.0373999 -0.0865998,-0.0662999 -0.0234,-0.0311999 -0.0401999,-0.0688999 -0.0502999,-0.113 -0.0102,-0.0438999 -0.0152,-0.1034 -0.0152,-0.1785l0 -0.476699zm0.206 -0.0778998l0.0942998 -0.1629 0.1257 0 -0.1574 0.1629 -0.0625999 0z"/>
   <polygon id="_92304192123" class="fil4" points="18.7425,7.26368 18.7425,7.07969 18.8848,7.07969 18.8848,7.26368 "/>
   <polygon id="_923041921234" class="fil4" points="19.2082,7.26368 19.2082,7.07969 19.3505,7.07969 19.3505,7.26368 "/>
   <polygon id="_9230419212345" class="fil4" points="19.6739,7.26368 19.6739,7.07969 19.8162,7.07969 19.8162,7.26368 "/>
   <polygon id="_92304192123456" class="fil4" points="20.7624,6.42059 20.9096,6.42059 20.9096,6.74639 21.1697,6.74639 21.1697,6.42059 21.3169,6.42059 21.3169,7.26368 21.1697,7.26368 21.1697,6.92299 20.9096,6.92299 20.9096,7.26368 20.7624,7.26368 "/>
   <path id="_923041921234567" class="fil4" d="M21.8002 6.92989l0.1866 0 -0.0885998 -0.324099 -0.0979998 0.324099zm-0.253099 0.333799l0.270399 -0.843098 0.1757 0 0.254599 0.843098 -0.1673 0 -0.0459999 -0.1709 -0.282799 0 -0.0481999 0.1709 -0.1564 0z"/>
   <path id="_9230419212345678" class="fil4" d="M22.6184 6.90879l0 0.1908 0.1003 0c0.0479999,0 0.0800998,-0.00719998 0.0964998,-0.0215 0.0165,-0.0142 0.0246999,-0.0393999 0.0246999,-0.0756998 0,-0.0344999 -0.00769998,-0.0588999 -0.0231,-0.0726998 -0.0154,-0.0139 -0.0480999,-0.0209 -0.0980998,-0.0209l-0.1003 0zm0 -0.326399l0 0.1777 0.0893998 0c0.0417999,0 0.0703999,-0.00679999 0.0856998,-0.0205 0.0152,-0.0138 0.0228,-0.0375999 0.0228,-0.0715999 0,-0.0319999 -0.00709999,-0.0541999 -0.0212,-0.0666999 -0.014,-0.0127 -0.0430999,-0.0189 -0.0872998,-0.0189l-0.0893998 0zm-0.1433 0.681299l0 -0.843098 0.262899 0c0.0432999,0 0.0761998,0.0021 0.0986998,0.00659999 0.0225,0.00429999 0.0416999,0.0117 0.0573999,0.0219 0.0244999,0.015 0.0433999,0.0391999 0.0572999,0.0729998 0.0137,0.0336999 0.0205,0.0726998 0.0205,0.1174 0,0.0487999 -0.00909998,0.0879998 -0.0272999,0.1175 -0.0182,0.0293999 -0.0467999,0.0512999 -0.0860998,0.0652999 0.0432999,0.00429999 0.0762998,0.0238999 0.0990998,0.0587999 0.023,0.0346999 0.0343999,0.0830998 0.0343999,0.1448 0,0.0381999 -0.00439999,0.0719998 -0.0133,0.1018 -0.00909998,0.0296999 -0.0222,0.0547999 -0.0397999,0.0752998 -0.0189,0.0219 -0.0425999,0.0372999 -0.0710999,0.0466999 -0.0287999,0.00929998 -0.0718998,0.014 -0.1298,0.014l-0.262899 0z"/>
   <polygon id="_92304192123456789" class="fil4" points="23.2756,7.26368 23.2756,6.42059 23.4228,6.42059 23.4228,7.07969 23.6953,7.07969 23.6953,7.26368 "/>
   <path id="_9230419212345678910" class="fil4" d="M24.1284 6.92989l0.1866 0 -0.0885998 -0.324099 -0.0979998 0.324099zm-0.253099 0.333799l0.270399 -0.843098 0.1757 0 0.254599 0.843098 -0.1673 0 -0.0459999 -0.1709 -0.282799 0 -0.0481999 0.1709 -0.1564 0z"/>
   <path id="_923041921234567891011" class="fil4" d="M24.7801 6.98229l0.1471 0 0 0.00859998c0,0.0415999 0.00849998,0.0721998 0.0254999,0.0920998 0.0168,0.0197 0.0429999,0.0296999 0.0784998,0.0296999 0.0314999,0 0.0549999,-0.00739998 0.0704999,-0.0221 0.0155,-0.0146 0.0232,-0.0366999 0.0232,-0.0658999 0,-0.0426999 -0.0358999,-0.0745998 -0.1078,-0.0953998 -0.0145,-0.00429999 -0.0256999,-0.00739998 -0.0334999,-0.00979998 -0.0707999,-0.022 -0.1207,-0.0518999 -0.1494,-0.0891998 -0.0287999,-0.0371999 -0.0431999,-0.0890998 -0.0431999,-0.1555 0,-0.0859998 0.0209,-0.152 0.0625999,-0.1974 0.0416999,-0.0454999 0.1017,-0.0682999 0.1805,-0.0682999 0.0750998,0 0.1307,0.0205 0.1669,0.0612999 0.0359999,0.0406999 0.0557999,0.1049 0.0587999,0.1925l-0.1398 0 0 -0.0023c0,-0.0307999 -0.00759998,-0.0540999 -0.0227,-0.0698999 -0.0152,-0.0158 -0.0376999,-0.0238 -0.0675999,-0.0238 -0.0287999,0 -0.0509999,0.00689999 -0.0666999,0.0205 -0.0156,0.0139 -0.0234,0.0331999 -0.0234,0.0583999 0,0.0399999 0.0346999,0.0703999 0.1043,0.0914998 0.0122,0.00369999 0.0218,0.00679999 0.0284999,0.00909998l0.00599999 0.0016c0.0764998,0.0239999 0.1272,0.0534999 0.1518,0.0879998 0.0143,0.0203 0.0252999,0.0448999 0.0326999,0.0740998 0.00749998,0.0290999 0.0113,0.0610999 0.0113,0.0958998 0,0.0871998 -0.0216,0.1543 -0.0650999,0.2013 -0.0431999,0.0469999 -0.1051,0.0705999 -0.1856,0.0705999 -0.0812998,0 -0.1422,-0.023 -0.1827,-0.0691999 -0.0404999,-0.0460999 -0.0606999,-0.1155 -0.0606999,-0.2086l0 -0.0178z"/>
   <polygon id="_92304192123456789101112" class="fil4" points="26.1845,7.26368 26.1845,6.42059 26.6264,6.42059 26.6264,6.60009 26.3278,6.60009 26.3278,6.74639 26.6119,6.74639 26.6119,6.91969 26.3278,6.91969 26.3278,7.08239 26.6344,7.08239 26.6344,7.26368 "/>
   <path id="_9230419212345678910111213" class="fil4" d="M26.8875 6.98229l0.1471 0 0 0.00859998c0,0.0415999 0.00849998,0.0721998 0.0254999,0.0920998 0.0168,0.0197 0.0429999,0.0296999 0.0784998,0.0296999 0.0314999,0 0.0549999,-0.00739998 0.0704999,-0.0221 0.0155,-0.0146 0.0232,-0.0366999 0.0232,-0.0658999 0,-0.0426999 -0.0358999,-0.0745998 -0.1078,-0.0953998 -0.0145,-0.00429999 -0.0256999,-0.00739998 -0.0334999,-0.00979998 -0.0707999,-0.022 -0.1207,-0.0518999 -0.1494,-0.0891998 -0.0287999,-0.0371999 -0.0431999,-0.0890998 -0.0431999,-0.1555 0,-0.0859998 0.0209,-0.152 0.0625999,-0.1974 0.0416999,-0.0454999 0.1017,-0.0682999 0.1805,-0.0682999 0.0750998,0 0.1307,0.0205 0.1669,0.0612999 0.0359999,0.0406999 0.0557999,0.1049 0.0587999,0.1925l-0.1398 0 0 -0.0023c0,-0.0307999 -0.00759998,-0.0540999 -0.0227,-0.0698999 -0.0152,-0.0158 -0.0376999,-0.0238 -0.0675999,-0.0238 -0.0287999,0 -0.0509999,0.00689999 -0.0666999,0.0205 -0.0156,0.0139 -0.0234,0.0331999 -0.0234,0.0583999 0,0.0399999 0.0346999,0.0703999 0.1043,0.0914998 0.0122,0.00369999 0.0218,0.00679999 0.0284999,0.00909998l0.00599999 0.0016c0.0764998,0.0239999 0.1272,0.0534999 0.1518,0.0879998 0.0143,0.0203 0.0252999,0.0448999 0.0326999,0.0740998 0.00749998,0.0290999 0.0113,0.0610999 0.0113,0.0958998 0,0.0871998 -0.0216,0.1543 -0.0650999,0.2013 -0.0431999,0.0469999 -0.1051,0.0705999 -0.1856,0.0705999 -0.0812998,0 -0.1422,-0.023 -0.1827,-0.0691999 -0.0404999,-0.0460999 -0.0606999,-0.1155 -0.0606999,-0.2086l0 -0.0178z"/>
   <path id="_923041921234567891011121314" class="fil4" d="M27.8052 6.58699l0 0.2131 0.0893998 0c0.0410999,0 0.0693999,-0.00799998 0.0846998,-0.0241999 0.0154,-0.0162 0.0231,-0.0442999 0.0231,-0.0842998 0,-0.0387999 -0.00749998,-0.0658999 -0.0224,-0.0812998 -0.0149,-0.0155 -0.0432999,-0.0233 -0.0853998,-0.0233l-0.0893998 0zm-0.1433 0.676699l0 -0.843098 0.268199 0c0.0390999,0 0.0694999,0.00329999 0.0912998,0.00979998 0.0218,0.00639999 0.0406999,0.0169 0.0566999,0.0313999 0.0236,0.0216 0.0412999,0.0520999 0.0535999,0.0914998 0.0121,0.0391999 0.0183,0.0855998 0.0183,0.1393 0,0.0537999 -0.00629999,0.1001 -0.0186,0.1389 -0.0125,0.0387999 -0.0307999,0.0686999 -0.0549999,0.0891998 -0.0172,0.0152 -0.0373999,0.0260999 -0.0604999,0.0325999 -0.0231,0.00639999 -0.0603999,0.00969998 -0.1118,0.00969998l-0.0115 0 -0.0873998 0 0 0.300699 -0.1433 0z"/>
   <path id="_92304192123456789101112131415" class="fil4" d="M28.5547 6.92989l0.1866 0 -0.0885998 -0.324099 -0.0979998 0.324099zm-0.253099 0.333799l0.270399 -0.843098 0.1757 0 0.254599 0.843098 -0.1673 0 -0.0459999 -0.1709 -0.282799 0 -0.0481999 0.1709 -0.1564 0z"/>
   <path id="_9230419212345678910111213141516" class="fil4" d="M29.2268 7.26368l0 -0.843098 0.1927 0 0.2376 0.606399 0 -0.606399 0.1321 0 0 0.843098 -0.1933 0 -0.2373 -0.604099 0 0.604099 -0.1318 0zm0.426099 -1.0749c-0.00609999,0.0411999 -0.0176,0.0731998 -0.0343999,0.0955998 -0.0167,0.0224 -0.0373999,0.0337999 -0.0617999,0.0337999 -0.00489999,0 -0.00959998,-0.000399999 -0.0141,-0.0012 -0.00469999,-0.000799998 -0.00899998,-0.0022 -0.0133,-0.00389999l-0.0608999 -0.0183c-0.00289999,-0.0012 -0.00589999,-0.0022 -0.00899998,-0.00279999 -0.00309999,-0.000599999 -0.00649999,-0.000799998 -0.00999998,-0.000799998 -0.0111,0 -0.0199,0.00339999 -0.0267999,0.00979998 -0.00679999,0.00639999 -0.0121,0.0168 -0.0159,0.0307999l-0.0438999 0c0.00769998,-0.0418999 0.0192,-0.0732998 0.0344999,-0.0939998 0.0152,-0.0209 0.0347999,-0.0311999 0.0586999,-0.0311999 0.00519999,0 0.0104,0.000299999 0.0154,0.0011 0.00509999,0.000799998 0.00999998,0.002 0.0149,0.00329999l0.0574999 0.019c0.00319999,0.0011 0.00679999,0.0021 0.0109,0.00269999 0.00399999,0.000599999 0.00829998,0.000799998 0.013,0.000799998 0.0101,0 0.0185,-0.00369999 0.0253999,-0.0111 0.00679999,-0.00749998 0.0118,-0.0188 0.0151,-0.0335999l0.0446999 0z"/>
   <path id="_923041921234567891011121314151617" class="fil4" d="M30.2189 6.85019c0,0.0885998 0.0133,0.155 0.0399999,0.1995 0.0265999,0.0441999 0.0664999,0.0664999 0.1195,0.0664999 0.0539999,0 0.0944998,-0.0219 0.1217,-0.0655999 0.0269999,-0.0434999 0.0405999,-0.1088 0.0405999,-0.1957 0,-0.0933998 -0.014,-0.1645 -0.0419999,-0.2134 -0.0277999,-0.0489999 -0.0684999,-0.0735998 -0.1217,-0.0735998 -0.0499999,0 -0.0887998,0.0247999 -0.1165,0.0743998 -0.0277999,0.0494999 -0.0415999,0.1188 -0.0415999,0.2079zm0.1521 0.428899c-0.0973998,0 -0.1724,-0.0377999 -0.2248,-0.1137 -0.0524999,-0.0758998 -0.0786998,-0.1842 -0.0786998,-0.325299 0,-0.1364 0.0278999,-0.242699 0.0835998,-0.318999 0.0557999,-0.0762998 0.1337,-0.1144 0.2337,-0.1144 0.0989998,0 0.1751,0.0380999 0.2282,0.1144 0.0531999,0.0762998 0.0797998,0.1852 0.0797998,0.326999 0,0.1399 -0.0273999,0.246599 -0.0821998,0.320399 -0.0547999,0.0736998 -0.1347,0.1106 -0.239599,0.1106z"/>
   <polygon id="_92304192123456789101112131415161718" class="fil4" points="30.9739,7.26368 30.9739,6.42059 31.1211,6.42059 31.1211,7.07969 31.3936,7.07969 31.3936,7.26368 "/>
   <path id="_9230419212345678910111213141516171819" class="fil4" d="M31.7114 7.02369c0,-0.00349999 -9.99998e-005,-0.00859998 -0.000299999,-0.0154 -0.000299999,-0.00679999 -0.000399999,-0.0119 -0.000399999,-0.0148 0,-0.0438999 0.00369999,-0.0790998 0.0111,-0.1056 0.00739998,-0.0264999 0.0205,-0.0518999 0.0392999,-0.0762998 0.0103,-0.0129 0.0256999,-0.0299999 0.0460999,-0.0514999 0.0408999,-0.0420999 0.0612999,-0.0799998 0.0612999,-0.1132 0,-0.0280999 -0.00789998,-0.0496999 -0.0238999,-0.0644999 -0.016,-0.0149 -0.0391999,-0.0223 -0.0696999,-0.0223 -0.0236,0 -0.0470999,0.00309999 -0.0707999,0.00939998 -0.0237,0.00639999 -0.0473999,0.0158 -0.0710999,0.0282999l0 -0.1618c0.0274999,-0.00839998 0.0543999,-0.0146 0.0808998,-0.0185 0.0265999,-0.00409999 0.0527999,-0.00609999 0.0788998,-0.00609999 0.0725998,0 0.1275,0.019 0.1648,0.0565999 0.0372999,0.0376999 0.0558999,0.0934998 0.0558999,0.167 0,0.0421999 -0.00609999,0.0790998 -0.0182,0.1101 -0.0122,0.0309999 -0.0330999,0.0619999 -0.0623999,0.0928998 -0.00369999,0.00369999 -0.00919998,0.00929998 -0.0166,0.0165 -0.0519999,0.0524999 -0.0780998,0.106 -0.0780998,0.16l0 0.00919998 -0.1268 0zm-0.00419999 0.239999l0 -0.1789 0.1349 0 0 0.1789 -0.1349 0z"/>
   <polygon id="_923041921234567891011121314151617181920" class="fil5 str0" points="15.617,7.26368 15.617,6.96069 15.3829,6.42059 15.5564,6.42059 15.7008,6.76989 15.8385,6.42059 15.9987,6.42059 15.7642,6.96419 15.7642,7.26368 "/>
   <polygon id="_92304192123456789101112131415161718192021" class="fil5 str0" points="17.2665,7.26368 17.2665,6.59779 17.0696,6.59779 17.0696,6.42059 17.6106,6.42059 17.6106,6.59779 17.4137,6.59779 17.4137,7.26368 "/>
   <path id="_9230419212345678910111213141516171819202122" class="fil5 str0" d="M17.871 6.42059l0.1507 0 0 0.475499c0,0.0686999 0.0103,0.1196 0.0309999,0.1532 0.0207,0.0334999 0.0519999,0.0502999 0.0943998,0.0502999 0.0442999,0 0.0771998,-0.0166 0.0984998,-0.0498999 0.0214,-0.0333999 0.0320999,-0.0844998 0.0320999,-0.1536l0 -0.475499 0.1507 0 0 0.476699c0,0.1319 -0.0226,0.2283 -0.0677999,0.289099 -0.0451999,0.0610999 -0.1166,0.0914998 -0.2143,0.0914998 -0.0464999,0 -0.0874998,-0.00759998 -0.1232,-0.0228 -0.0356999,-0.0152 -0.0644999,-0.0373999 -0.0865998,-0.0662999 -0.0234,-0.0311999 -0.0401999,-0.0688999 -0.0502999,-0.113 -0.0102,-0.0438999 -0.0152,-0.1034 -0.0152,-0.1785l0 -0.476699zm0.206 -0.0778998l0.0942998 -0.1629 0.1257 0 -0.1574 0.1629 -0.0625999 0z"/>
   <polygon id="_923041921234567891011121314151617181920212223" class="fil5 str0" points="18.7425,7.26368 18.7425,7.07969 18.8848,7.07969 18.8848,7.26368 "/>
   <polygon id="_92304192123456789101112131415161718192021222324" class="fil5 str0" points="19.2082,7.26368 19.2082,7.07969 19.3505,7.07969 19.3505,7.26368 "/>
   <polygon id="_9230419212345678910111213141516171819202122232425" class="fil5 str0" points="19.6739,7.26368 19.6739,7.07969 19.8162,7.07969 19.8162,7.26368 "/>
   <polygon id="_923041921234567891011121314151617181920212223242526" class="fil5 str0" points="20.7624,6.42059 20.9096,6.42059 20.9096,6.74639 21.1697,6.74639 21.1697,6.42059 21.3169,6.42059 21.3169,7.26368 21.1697,7.26368 21.1697,6.92299 20.9096,6.92299 20.9096,7.26368 20.7624,7.26368 "/>
   <path id="_92304192123456789101112131415161718192021222324252627" class="fil5 str0" d="M21.8002 6.92989l0.1866 0 -0.0885998 -0.324099 -0.0979998 0.324099zm-0.253099 0.333799l0.270399 -0.843098 0.1757 0 0.254599 0.843098 -0.1673 0 -0.0459999 -0.1709 -0.282799 0 -0.0481999 0.1709 -0.1564 0z"/>
   <path id="_9230419212345678910111213141516171819202122232425262728" class="fil5 str0" d="M22.6184 6.90879l0 0.1908 0.1003 0c0.0479999,0 0.0800998,-0.00719998 0.0964998,-0.0215 0.0165,-0.0142 0.0246999,-0.0393999 0.0246999,-0.0756998 0,-0.0344999 -0.00769998,-0.0588999 -0.0231,-0.0726998 -0.0154,-0.0139 -0.0480999,-0.0209 -0.0980998,-0.0209l-0.1003 0zm0 -0.326399l0 0.1777 0.0893998 0c0.0417999,0 0.0703999,-0.00679999 0.0856998,-0.0205 0.0152,-0.0138 0.0228,-0.0375999 0.0228,-0.0715999 0,-0.0319999 -0.00709999,-0.0541999 -0.0212,-0.0666999 -0.014,-0.0127 -0.0430999,-0.0189 -0.0872998,-0.0189l-0.0893998 0zm-0.1433 0.681299l0 -0.843098 0.262899 0c0.0432999,0 0.0761998,0.0021 0.0986998,0.00659999 0.0225,0.00429999 0.0416999,0.0117 0.0573999,0.0219 0.0244999,0.015 0.0433999,0.0391999 0.0572999,0.0729998 0.0137,0.0336999 0.0205,0.0726998 0.0205,0.1174 0,0.0487999 -0.00909998,0.0879998 -0.0272999,0.1175 -0.0182,0.0293999 -0.0467999,0.0512999 -0.0860998,0.0652999 0.0432999,0.00429999 0.0762998,0.0238999 0.0990998,0.0587999 0.023,0.0346999 0.0343999,0.0830998 0.0343999,0.1448 0,0.0381999 -0.00439999,0.0719998 -0.0133,0.1018 -0.00909998,0.0296999 -0.0222,0.0547999 -0.0397999,0.0752998 -0.0189,0.0219 -0.0425999,0.0372999 -0.0710999,0.0466999 -0.0287999,0.00929998 -0.0718998,0.014 -0.1298,0.014l-0.262899 0z"/>
   <polygon id="_923041921234567891011121314151617181920212223242526272829" class="fil5 str0" points="23.2756,7.26368 23.2756,6.42059 23.4228,6.42059 23.4228,7.07969 23.6953,7.07969 23.6953,7.26368 "/>
   <path id="_92304192123456789101112131415161718192021222324252627282930" class="fil5 str0" d="M24.1284 6.92989l0.1866 0 -0.0885998 -0.324099 -0.0979998 0.324099zm-0.253099 0.333799l0.270399 -0.843098 0.1757 0 0.254599 0.843098 -0.1673 0 -0.0459999 -0.1709 -0.282799 0 -0.0481999 0.1709 -0.1564 0z"/>
   <path id="_9230419212345678910111213141516171819202122232425262728293031" class="fil5 str0" d="M24.7801 6.98229l0.1471 0 0 0.00859998c0,0.0415999 0.00849998,0.0721998 0.0254999,0.0920998 0.0168,0.0197 0.0429999,0.0296999 0.0784998,0.0296999 0.0314999,0 0.0549999,-0.00739998 0.0704999,-0.0221 0.0155,-0.0146 0.0232,-0.0366999 0.0232,-0.0658999 0,-0.0426999 -0.0358999,-0.0745998 -0.1078,-0.0953998 -0.0145,-0.00429999 -0.0256999,-0.00739998 -0.0334999,-0.00979998 -0.0707999,-0.022 -0.1207,-0.0518999 -0.1494,-0.0891998 -0.0287999,-0.0371999 -0.0431999,-0.0890998 -0.0431999,-0.1555 0,-0.0859998 0.0209,-0.152 0.0625999,-0.1974 0.0416999,-0.0454999 0.1017,-0.0682999 0.1805,-0.0682999 0.0750998,0 0.1307,0.0205 0.1669,0.0612999 0.0359999,0.0406999 0.0557999,0.1049 0.0587999,0.1925l-0.1398 0 0 -0.0023c0,-0.0307999 -0.00759998,-0.0540999 -0.0227,-0.0698999 -0.0152,-0.0158 -0.0376999,-0.0238 -0.0675999,-0.0238 -0.0287999,0 -0.0509999,0.00689999 -0.0666999,0.0205 -0.0156,0.0139 -0.0234,0.0331999 -0.0234,0.0583999 0,0.0399999 0.0346999,0.0703999 0.1043,0.0914998 0.0122,0.00369999 0.0218,0.00679999 0.0284999,0.00909998l0.00599999 0.0016c0.0764998,0.0239999 0.1272,0.0534999 0.1518,0.0879998 0.0143,0.0203 0.0252999,0.0448999 0.0326999,0.0740998 0.00749998,0.0290999 0.0113,0.0610999 0.0113,0.0958998 0,0.0871998 -0.0216,0.1543 -0.0650999,0.2013 -0.0431999,0.0469999 -0.1051,0.0705999 -0.1856,0.0705999 -0.0812998,0 -0.1422,-0.023 -0.1827,-0.0691999 -0.0404999,-0.0460999 -0.0606999,-0.1155 -0.0606999,-0.2086l0 -0.0178z"/>
   <polygon id="_923041921234567891011121314151617181920212223242526272829303132" class="fil5 str0" points="26.1845,7.26368 26.1845,6.42059 26.6264,6.42059 26.6264,6.60009 26.3278,6.60009 26.3278,6.74639 26.6119,6.74639 26.6119,6.91969 26.3278,6.91969 26.3278,7.08239 26.6344,7.08239 26.6344,7.26368 "/>
   <path id="_92304192123456789101112131415161718192021222324252627282930313233" class="fil5 str0" d="M26.8875 6.98229l0.1471 0 0 0.00859998c0,0.0415999 0.00849998,0.0721998 0.0254999,0.0920998 0.0168,0.0197 0.0429999,0.0296999 0.0784998,0.0296999 0.0314999,0 0.0549999,-0.00739998 0.0704999,-0.0221 0.0155,-0.0146 0.0232,-0.0366999 0.0232,-0.0658999 0,-0.0426999 -0.0358999,-0.0745998 -0.1078,-0.0953998 -0.0145,-0.00429999 -0.0256999,-0.00739998 -0.0334999,-0.00979998 -0.0707999,-0.022 -0.1207,-0.0518999 -0.1494,-0.0891998 -0.0287999,-0.0371999 -0.0431999,-0.0890998 -0.0431999,-0.1555 0,-0.0859998 0.0209,-0.152 0.0625999,-0.1974 0.0416999,-0.0454999 0.1017,-0.0682999 0.1805,-0.0682999 0.0750998,0 0.1307,0.0205 0.1669,0.0612999 0.0359999,0.0406999 0.0557999,0.1049 0.0587999,0.1925l-0.1398 0 0 -0.0023c0,-0.0307999 -0.00759998,-0.0540999 -0.0227,-0.0698999 -0.0152,-0.0158 -0.0376999,-0.0238 -0.0675999,-0.0238 -0.0287999,0 -0.0509999,0.00689999 -0.0666999,0.0205 -0.0156,0.0139 -0.0234,0.0331999 -0.0234,0.0583999 0,0.0399999 0.0346999,0.0703999 0.1043,0.0914998 0.0122,0.00369999 0.0218,0.00679999 0.0284999,0.00909998l0.00599999 0.0016c0.0764998,0.0239999 0.1272,0.0534999 0.1518,0.0879998 0.0143,0.0203 0.0252999,0.0448999 0.0326999,0.0740998 0.00749998,0.0290999 0.0113,0.0610999 0.0113,0.0958998 0,0.0871998 -0.0216,0.1543 -0.0650999,0.2013 -0.0431999,0.0469999 -0.1051,0.0705999 -0.1856,0.0705999 -0.0812998,0 -0.1422,-0.023 -0.1827,-0.0691999 -0.0404999,-0.0460999 -0.0606999,-0.1155 -0.0606999,-0.2086l0 -0.0178z"/>
   <path id="_9230419212345678910111213141516171819202122232425262728293031323334" class="fil5 str0" d="M27.8052 6.58699l0 0.2131 0.0893998 0c0.0410999,0 0.0693999,-0.00799998 0.0846998,-0.0241999 0.0154,-0.0162 0.0231,-0.0442999 0.0231,-0.0842998 0,-0.0387999 -0.00749998,-0.0658999 -0.0224,-0.0812998 -0.0149,-0.0155 -0.0432999,-0.0233 -0.0853998,-0.0233l-0.0893998 0zm-0.1433 0.676699l0 -0.843098 0.268199 0c0.0390999,0 0.0694999,0.00329999 0.0912998,0.00979998 0.0218,0.00639999 0.0406999,0.0169 0.0566999,0.0313999 0.0236,0.0216 0.0412999,0.0520999 0.0535999,0.0914998 0.0121,0.0391999 0.0183,0.0855998 0.0183,0.1393 0,0.0537999 -0.00629999,0.1001 -0.0186,0.1389 -0.0125,0.0387999 -0.0307999,0.0686999 -0.0549999,0.0891998 -0.0172,0.0152 -0.0373999,0.0260999 -0.0604999,0.0325999 -0.0231,0.00639999 -0.0603999,0.00969998 -0.1118,0.00969998l-0.0115 0 -0.0873998 0 0 0.300699 -0.1433 0z"/>
   <path id="_923041921234567891011121314151617181920212223242526272829303132333435" class="fil5 str0" d="M28.5547 6.92989l0.1866 0 -0.0885998 -0.324099 -0.0979998 0.324099zm-0.253099 0.333799l0.270399 -0.843098 0.1757 0 0.254599 0.843098 -0.1673 0 -0.0459999 -0.1709 -0.282799 0 -0.0481999 0.1709 -0.1564 0z"/>
   <path id="_92304192123456789101112131415161718192021222324252627282930313233343536" class="fil5 str0" d="M29.2268 7.26368l0 -0.843098 0.1927 0 0.2376 0.606399 0 -0.606399 0.1321 0 0 0.843098 -0.1933 0 -0.2373 -0.604099 0 0.604099 -0.1318 0zm0.426099 -1.0749c-0.00609999,0.0411999 -0.0176,0.0731998 -0.0343999,0.0955998 -0.0167,0.0224 -0.0373999,0.0337999 -0.0617999,0.0337999 -0.00489999,0 -0.00959998,-0.000399999 -0.0141,-0.0012 -0.00469999,-0.000799998 -0.00899998,-0.0022 -0.0133,-0.00389999l-0.0608999 -0.0183c-0.00289999,-0.0012 -0.00589999,-0.0022 -0.00899998,-0.00279999 -0.00309999,-0.000599999 -0.00649999,-0.000799998 -0.00999998,-0.000799998 -0.0111,0 -0.0199,0.00339999 -0.0267999,0.00979998 -0.00679999,0.00639999 -0.0121,0.0168 -0.0159,0.0307999l-0.0438999 0c0.00769998,-0.0418999 0.0192,-0.0732998 0.0344999,-0.0939998 0.0152,-0.0209 0.0347999,-0.0311999 0.0586999,-0.0311999 0.00519999,0 0.0104,0.000299999 0.0154,0.0011 0.00509999,0.000799998 0.00999998,0.002 0.0149,0.00329999l0.0574999 0.019c0.00319999,0.0011 0.00679999,0.0021 0.0109,0.00269999 0.00399999,0.000599999 0.00829998,0.000799998 0.013,0.000799998 0.0101,0 0.0185,-0.00369999 0.0253999,-0.0111 0.00679999,-0.00749998 0.0118,-0.0188 0.0151,-0.0335999l0.0446999 0z"/>
   <path id="_9230419212345678910111213141516171819202122232425262728293031323334353637" class="fil5 str0" d="M30.2189 6.85019c0,0.0885998 0.0133,0.155 0.0399999,0.1995 0.0265999,0.0441999 0.0664999,0.0664999 0.1195,0.0664999 0.0539999,0 0.0944998,-0.0219 0.1217,-0.0655999 0.0269999,-0.0434999 0.0405999,-0.1088 0.0405999,-0.1957 0,-0.0933998 -0.014,-0.1645 -0.0419999,-0.2134 -0.0277999,-0.0489999 -0.0684999,-0.0735998 -0.1217,-0.0735998 -0.0499999,0 -0.0887998,0.0247999 -0.1165,0.0743998 -0.0277999,0.0494999 -0.0415999,0.1188 -0.0415999,0.2079zm0.1521 0.428899c-0.0973998,0 -0.1724,-0.0377999 -0.2248,-0.1137 -0.0524999,-0.0758998 -0.0786998,-0.1842 -0.0786998,-0.325299 0,-0.1364 0.0278999,-0.242699 0.0835998,-0.318999 0.0557999,-0.0762998 0.1337,-0.1144 0.2337,-0.1144 0.0989998,0 0.1751,0.0380999 0.2282,0.1144 0.0531999,0.0762998 0.0797998,0.1852 0.0797998,0.326999 0,0.1399 -0.0273999,0.246599 -0.0821998,0.320399 -0.0547999,0.0736998 -0.1347,0.1106 -0.239599,0.1106z"/>
   <polygon id="_923041921234567891011121314151617181920212223242526272829303132333435363738" class="fil5 str0" points="30.9739,7.26368 30.9739,6.42059 31.1211,6.42059 31.1211,7.07969 31.3936,7.07969 31.3936,7.26368 "/>
   <path id="_92304192123456789101112131415161718192021222324252627282930313233343536373839" class="fil5 str0" d="M31.7114 7.02369c0,-0.00349999 -9.99998e-005,-0.00859998 -0.000299999,-0.0154 -0.000299999,-0.00679999 -0.000399999,-0.0119 -0.000399999,-0.0148 0,-0.0438999 0.00369999,-0.0790998 0.0111,-0.1056 0.00739998,-0.0264999 0.0205,-0.0518999 0.0392999,-0.0762998 0.0103,-0.0129 0.0256999,-0.0299999 0.0460999,-0.0514999 0.0408999,-0.0420999 0.0612999,-0.0799998 0.0612999,-0.1132 0,-0.0280999 -0.00789998,-0.0496999 -0.0238999,-0.0644999 -0.016,-0.0149 -0.0391999,-0.0223 -0.0696999,-0.0223 -0.0236,0 -0.0470999,0.00309999 -0.0707999,0.00939998 -0.0237,0.00639999 -0.0473999,0.0158 -0.0710999,0.0282999l0 -0.1618c0.0274999,-0.00839998 0.0543999,-0.0146 0.0808998,-0.0185 0.0265999,-0.00409999 0.0527999,-0.00609999 0.0788998,-0.00609999 0.0725998,0 0.1275,0.019 0.1648,0.0565999 0.0372999,0.0376999 0.0558999,0.0934998 0.0558999,0.167 0,0.0421999 -0.00609999,0.0790998 -0.0182,0.1101 -0.0122,0.0309999 -0.0330999,0.0619999 -0.0623999,0.0928998 -0.00369999,0.00369999 -0.00919998,0.00929998 -0.0166,0.0165 -0.0519999,0.0524999 -0.0780998,0.106 -0.0780998,0.16l0 0.00919998 -0.1268 0zm-0.00419999 0.239999l0 -0.1789 0.1349 0 0 0.1789 -0.1349 0z"/>
  </g>
 </g>
</svg>
